# xmcd CD database file
#
# Track frame offsets:
#	150
#	49365
#	70217
#	93630
#	109329
#	140370
#	173287
#	195265
#
# Disc length: 2963 seconds
#
# Revision: 0
# Processed by: cddbd v1.5.2PL0 Copyright (c) Steve Scherf et al.
# Submitted via: CDex 1.51
#
DISCID=690b9108
DTITLE=B. B. King - Live
DYEAR=2002
DGENRE=Blues
TTITLE0=BB's Theme
TTITLE1=Why i Sing the Blues
TTITLE2=Darling You Know I Love You
TTITLE3=Caldonia
TTITLE4=Outside Help
TTITLE5=The Letter
TTITLE6=Everyday I have The Blues
TTITLE7=Seweet little Angel
EXTD=YEAR: 2002
EXTT0=
EXTT1=
EXTT2=
EXTT3=
EXTT4=
EXTT5=
EXTT6=
EXTT7=
PLAYORDER=
